# xmcd
#
# Track frame offsets:
#	150
#	10240
#	23112
#	34425
#	45222
#	58942
#	74442
#	86767
#	98315
#	109340
#	120020
#	132045
#	145227
#	153367
#	161055
#	172055
#
# Disc length: 2594
#
# Revision: 2
# Processed by: cddbd v1.5.1PL0 Copyright (c) Steve Scherf et al.
# Submitted via: Audio-CD-Archiv 2.10.438
# Normalized: r1:DSETVAR1,TDELIM( - )
#
DISCID=cd0a2010
DTITLE=Various Artist - Country Festival Vol. 2
DYEAR=1900
DGENRE=country
TTITLE0=Eddie Jones - Deep in the heart of Texas
TTITLE1=Freddy Fender - Silver Wings
TTITLE2=George Jones - I can't change Overnight
TTITLE3=Jerry Lee Lewis and Linda Gail Lewis - Jackson
TTITLE4=Tennessee - Train to Santa Fe
TTITLE5=Melba Montgomery - No Change
TTITLE6=Tex Ritter - Goodbye my little Chrokee
TTITLE7=Anne Murray - The last thing on my mInd
TTITLE8=Porter Wagonre - Enough to make a Grown man cry
TTITLE9=Frankie Laine - The love of a Woman
TTITLE10=Billy Jo Spears - This ole House
TTITLE11=Loretta Lynn - Let your love Flow
TTITLE12=Roger Miller - Do Wacka Do
TTITLE13=Dolly Parton - Puppy Love
TTITLE14=Stonewall Jackson - Waterloo
TTITLE15=Billy Ray Cyrus - Achy Breaky heart (Don't tell my Heart)
EXTD=
EXTT0=
EXTT1=
EXTT2=
EXTT3=
EXTT4=
EXTT5=
EXTT6=
EXTT7=
EXTT8=
EXTT9=
EXTT10=
EXTT11=
EXTT12=
EXTT13=
EXTT14=
EXTT15=
PLAYORDER=
